<?xml version="1.0" encoding="UTF-8" standalone="no"?><!DOCTYPE svg PUBLIC "-//W3C//DTD SVG 1.1//EN" "http://www.w3.org/Graphics/SVG/1.1/DTD/svg11.dtd"><svg width="100%" height="100%" viewBox="0 0 512 512" version="1.1" xmlns="http://www.w3.org/2000/svg" xmlns:xlink="http://www.w3.org/1999/xlink" xml:space="preserve" xmlns:serif="http://www.serif.com/" style="fill-rule:evenodd;clip-rule:evenodd;stroke-linejoin:round;stroke-miterlimit:1.41421;"><path d="M256,0c-140.699,0 -256,116.301 -256,257c0,139.883 114.25,255 256,255c141.574,0 256,-114.945 256,-255c0,-140.699 -115.301,-257 -256,-257Zm45,477.5c-14.398,3 -29.699,4.5 -45,4.5c-15.301,0 -30.602,-1.5 -45,-4.5l0,-70.199c0,-16.801 4.5,-22.801 10.5,-30.903c3.055,-3.492 4.898,-6.625 18.598,-27.296l-23.098,-3.602c-59.402,-8.699 -82.801,-39.602 -92.102,-63.602c-12,-32.097 -5.699,-72.3 15.903,-97.796c3.301,-3.903 6,-10.504 3.601,-17.403c-4.504,-13.801 -3.902,-35.699 -0.902,-44.101c15.906,2.273 32.262,13.668 45.902,21.902c6.286,3.668 9.582,2.699 12.598,3c10.961,-2.281 28.059,-7.801 54.301,-7.801c16.199,0 33.301,2.399 50.101,7.199c3.004,-0.07 7.832,2.485 16.2,-2.398c14.257,-8.688 30.058,-19.691 45.898,-21.902c3,8.402 3.602,30.3 -0.898,44.101c-2.403,6.899 0.296,13.5 3.601,17.403c21.598,25.5 27.899,65.699 15.899,97.796c-9.301,24 -32.7,54.903 -92.102,63.602l-23.098,3.602c14.161,21.367 15.653,23.929 18.602,27.296c5.996,8.102 10.496,14.102 10.496,30.903l0,70.199Zm30,-8.699l0,-61.5c0,-17.102 -3.602,-28.5 -8.402,-36.903c45.601,-12.296 78.004,-39.3 92.402,-78c15.301,-40.796 8.402,-89.398 -17.102,-123c4.504,-20.097 4.504,-52.199 -6.296,-67.199c-4.801,-6.597 -11.403,-10.199 -19.801,-10.199l-0.301,0c-23.262,1.258 -41.57,12.973 -61.199,24.898c-18,-4.8 -36.301,-7.199 -54.602,-7.199c-18.597,0 -37.199,2.699 -53.695,7.199c-20.664,-12.461 -38.797,-23.671 -62.703,-24.898c-7.5,0 -14.102,3.602 -18.903,10.199c-10.796,15 -10.796,47.102 -6.296,67.199c-25.504,33.602 -32.403,82.5 -17.102,123c14.398,38.7 46.801,65.704 92.402,78c-3.722,6.512 -6.668,14.914 -7.828,26.286c-9.211,3.175 -17.199,4.211 -24.629,2.027c-7.836,-2.316 -13.941,-7.547 -19.246,-16.469c-11.914,-20.015 -32.207,-36.355 -55.312,-34.23l2.636,29.883c10.7,-0.981 21.348,10.339 26.879,19.671c9.125,15.368 21.418,25.446 36.547,29.914c11.231,3.309 21.496,3.231 32.551,0.872l0,40.449c-87.301,-30.602 -151,-114 -151,-211.801c0,-124.199 101.801,-227 226,-227c124.199,0 226,102.801 226,227c0,97.801 -63.699,181.199 -151,211.801Z" style="fill:#c9c9c9;fill-rule:nonzero;"/></svg>